<svg width="11" height="17" viewBox="0 0 11 17" xmlns="http://www.w3.org/2000/svg" class="a"><style>.a{fill:none;}.b{fill:black;}</style><path d="M7.3 3.9C7.1 3.7 7 3.5 6.8 3.4L6.8 3.4C6.5 3.1 6.1 3 5.7 3L5.1 2.9C4.7 2.9 4.3 3 4 3.2V3.2C3.8 3.4 3.5 3.6 3.4 3.9L3.1 4.5C3 4.6 2.9 4.8 2.9 5L2.9 5C2.8 5.3 2.6 5.5 2.5 5.8V5.8 5.8C2.2 6.1 1.8 6.3 1.4 6.3L1.2 6.3C1 6.2 0.8 6.2 0.6 6V6C0.5 6 0.4 5.9 0.4 5.8V5.8C0.1 5.5 0 5.2 0.1 4.8L0.1 4.4C0.2 4.3 0.2 4.2 0.2 4.1L0.3 3.8C0.5 3.2 0.9 2.7 1.3 2.2V2.2C1.5 2.1 1.7 1.9 1.9 1.8L2.3 1.5C2.6 1.3 3 1.1 3.5 0.9V0.9C3.9 0.8 4.4 0.7 4.8 0.7H6.1L6.7 0.8C7.2 0.9 7.7 1 8.1 1.3L8.3 1.4C8.8 1.6 9.3 2 9.6 2.5V2.5C9.8 2.8 9.9 3.1 10 3.3L10.1 3.5C10.2 3.8 10.3 4.2 10.3 4.5V4.5C10.3 4.7 10.3 4.9 10.3 5.2L10.3 5.5V5.5C10.2 5.9 10.1 6.3 9.9 6.6L9.6 7 8.8 7.9 7.7 8.9 7.2 9.4C6.7 9.8 6.4 10.3 6.3 11L6.2 11.4C6.1 11.5 6.1 11.7 6 11.8V11.8C5.8 12.1 5.5 12.2 5.2 12.3L5.1 12.3C4.9 12.3 4.8 12.3 4.7 12.3L4.6 12.2C4.4 12.2 4.2 12.1 4.1 12V12C3.9 11.8 3.7 11.5 3.7 11.3L3.7 11.1C3.7 11 3.7 10.9 3.7 10.8L3.7 10.6C3.7 10.1 3.8 9.6 4 9.2L4.1 9.2C4.3 8.6 4.6 8.2 5.1 7.8L6.1 6.9C6.3 6.7 6.4 6.6 6.6 6.4L7.1 5.8C7.3 5.6 7.4 5.2 7.5 4.9V4.9C7.5 4.6 7.4 4.2 7.3 3.9V3.9Z" class="b"/><ellipse cx="5.1" cy="14.7" rx="1.6" ry="1.6" class="b"/></svg>
